<?xml version="1.0" encoding="utf-8"?>
<!-- Generator: Adobe Illustrator 21.0.0, SVG Export Plug-In . SVG Version: 6.00 Build 0)  -->
<svg version="1.1" id="Layer_1" xmlns="http://www.w3.org/2000/svg" xmlns:xlink="http://www.w3.org/1999/xlink" x="0px" y="0px"
	 viewBox="0 0 612 792" style="enable-background:new 0 0 612 792;" xml:space="preserve">
<style type="text/css">
	.st0{font-family:'AboveDEMO-Regular';}
	.st1{font-size:40px;}
</style>
<text transform="matrix(1 0 0 1 211 245)" class="st0 st1">California</text>
<g>
	<g>
		<path d="M120.8,207.5c0.3,0.2,0.5,0.5,0.5,1c0.1,0.4,0,0.8-0.1,1.2c-0.7,1.7-1.6,3.2-2.6,4.2s-1.9,1.9-2.8,2.6
			c0,0.3,0,0.5-0.1,0.7c0,0.2-0.1,0.4-0.1,0.6c-0.7,3.2-1.9,5.8-3.4,8c-1.6,2.1-3.4,4-5.5,5.5c-0.5,0.3-1,0.6-1.4,0.9
			c-0.5,0.2-1,0.4-1.6,0.5c-0.7,0.1-1.3,0-1.8-0.2c-0.5-0.2-1-0.6-1.4-1.3c0-0.1-0.1-0.2-0.2-0.2c-0.1,0-0.2-0.1-0.3-0.1
			c-0.5,0-0.8-0.1-1.1-0.4c-0.3-0.2-0.6-0.6-0.8-1c-0.2-0.5-0.5-1.1-0.7-1.6c-0.2-0.5-0.5-1.1-0.6-1.7c-1.7-4.5-3-9-3.9-13.7
			c-0.2-1.1-0.4-2.2-0.5-3.3c-0.1-1.1-0.2-2.3-0.4-3.4c0-0.3-0.1-0.6-0.1-0.9c0-0.3,0-0.6,0.1-0.9c0.1-0.6,0.3-1.1,0.5-1.5
			c0.2-0.5,0.6-0.8,1-1.2c0.5-0.3,0.9-0.5,1.2-0.4c0.3,0.1,0.6,0.3,0.8,0.7c0.2,0.3,0.3,0.6,0.4,0.9c0.1,0.3,0.2,0.7,0.3,1.1
			c0.3,1,0.5,2.1,0.8,3.3c0.1,0,0.1,0,0.1,0.1c0.1-0.2,0.1-0.4,0.2-0.5c0.1-0.2,0.1-0.3,0.1-0.4c0.4-1.3,0.9-2.5,1.4-3.7
			c0.5-1.2,1.1-2.4,1.8-3.6c0.3-0.5,0.6-0.9,0.9-1.4c0.3-0.4,0.7-0.8,1-1.2c0.7-0.7,1.4-1,2-0.9c0.6,0.1,1.2,0.5,1.6,1.2
			c0.6,1,0.8,2.3,0.9,3.7c0.1,1.3,0,2.7-0.2,4c-0.2,1.3-0.5,2.6-1,3.9c0,0.1-0.1,0.3-0.1,0.5c-0.1,0.2-0.1,0.3-0.1,0.4
			c0,0.1,0,0.1,0,0.2c0.1-0.1,0.3-0.1,0.4-0.2c0.1-0.1,0.2-0.2,0.3-0.2c0.7-0.3,1.4-0.7,2.1-0.9c0.7-0.2,1.4-0.3,2.1-0.3
			c1.3,0.1,2.5,0.6,3.4,1.5c0.9,0.9,1.6,2.2,2.1,3.9c0,0.1,0,0.1,0,0.1c0.6-0.6,1.2-1.2,1.8-2c0.6-0.8,1.1-1.7,1.5-2.8
			c0.2-0.4,0.4-0.7,0.7-0.8C120.2,207.3,120.6,207.4,120.8,207.5z M103.6,199.2c-0.6,0.7-1.2,1.7-1.8,3.1c-0.6,1.4-1.2,2.9-1.6,4.4
			c-0.5,1.6-0.8,3.1-1.1,4.5c-0.3,1.4-0.3,2.6-0.2,3.5c0.1-0.1,0.2-0.2,0.3-0.4c0.5-1,1-2,1.5-3c0.5-1,1.1-2.1,1.5-3.2
			c0.4-1,0.8-2.2,1.2-3.5c0.2-0.7,0.3-1.3,0.4-2c0.1-0.7,0.1-1.4,0.1-2c0-0.3,0-0.5,0-0.7C103.9,199.5,103.8,199.3,103.6,199.2z
			 M99.9,219.9c0.3,1,0.6,1.9,0.8,2.9c0.3,1,0.5,2,0.8,3.1c1.5-2.4,3.1-4.4,5-6.1c1.8-1.7,3.8-3.2,5.9-4.4c-0.2-1.8-0.9-3-2.2-3.3
			c-1.1-0.3-2.3,0-3.4,0.6c-0.7,0.4-1.4,0.8-2.1,1.3c-0.7,0.5-1.4,0.9-2.2,1.4c-0.2,0.1-0.4,0.3-0.5,0.5c-0.2,0.2-0.3,0.4-0.5,0.6
			c-0.2,0.4-0.5,0.8-0.7,1.2c-0.2,0.4-0.5,0.8-0.8,1.2C99.8,219.2,99.8,219.6,99.9,219.9z M111.3,220.6c0.1-0.2,0.1-0.3,0.2-0.5
			c0-0.1,0.1-0.3,0.1-0.4c-0.1,0-0.2,0-0.2,0c-0.1,0-0.2,0.1-0.3,0.2c-2.7,1.8-5,4.2-7.1,7.1c-0.2,0.3-0.4,0.6-0.5,0.8
			c-0.1,0.3-0.3,0.6-0.4,0.8c-0.1,0.2-0.1,0.3-0.1,0.5c0,0.2-0.1,0.3-0.1,0.5c0.4,0,0.7,0,0.9,0c0.2,0,0.5-0.2,0.9-0.4
			c1.4-1,2.7-2.3,3.8-3.7C109.6,224.1,110.5,222.4,111.3,220.6z"/>
		<path d="M140.7,200.6c0.2,0.2,0.4,0.5,0.4,0.8c0.1,0.3,0.1,0.6,0.1,1c0,0,0,0.3-0.1,0.9c-0.1,0.5-0.2,1.3-0.4,2.1
			c-0.2,0.9-0.4,1.9-0.6,3c-0.2,1.1-0.5,2.3-0.8,3.4c-0.2,0.7-0.3,1.4-0.5,2c-0.2,0.6-0.4,1.2-0.5,1.8c-0.2,0.7-0.4,1.4-0.6,2.1
			c-0.2,0.7-0.4,1.4-0.6,2.1c-0.2,0.8-0.5,1.7-0.9,2.4c-0.3,0.6-0.7,1.1-1.2,1.4c-0.4,0.3-0.9,0.4-1.4,0.4c-0.5-0.1-0.9-0.3-1.4-0.7
			c-0.4-0.4-0.8-1-1.1-1.6c-0.3-0.7-0.7-1.5-0.8-2.4c-0.1-0.7-0.2-1.4-0.3-2.1c-0.1-0.7-0.2-1.4-0.2-2.1c0-0.2,0-0.4,0-0.6
			c0-0.2,0-0.5-0.1-0.8c-0.1,0.2-0.2,0.4-0.3,0.5c-0.1,0.1-0.1,0.3-0.1,0.4c-0.2,0.6-0.4,1.2-0.7,1.8c-0.2,0.6-0.5,1.2-0.8,1.8
			c-0.2,0.4-0.4,0.8-0.6,1.1c-0.2,0.4-0.5,0.7-0.8,1.1c-0.8,1-1.7,1.5-2.7,1.4c-1,0-1.9-0.6-2.7-1.6c-0.5-0.7-1-1.4-1.3-2.2
			c-0.3-0.8-0.5-1.7-0.6-2.6c-0.3-2.2-0.2-4.4,0.1-6.5c0.4-2.1,1-4.2,2.1-6.3c0.8-1.7,1.8-2.9,3-3.5c1.1-0.7,2.4-0.9,3.8-0.6
			c0.4,0.1,0.8,0.3,1.2,0.5c0.4,0.3,0.8,0.5,1.2,0.7c0-0.1,0.1-0.2,0.1-0.3c0-0.1,0-0.3,0.1-0.4c0.1-0.4,0.3-0.8,0.5-1.1
			c0.2-0.3,0.5-0.4,0.8-0.5c0.7-0.1,1.2,0.3,1.5,1.1c0.2,0.6,0.3,1.2,0.4,1.8c0,0.7,0.1,1.4,0.1,2.1c0,0.7,0,1.4,0,2.1
			c-0.1,1.7-0.1,3.4-0.2,5c-0.1,1.6-0.1,3.3-0.2,4.9c0,0.6,0,1.2,0,1.8c0,0.6,0.1,1.3,0.1,1.9c0,0.2,0,0.4,0,0.5s0.1,0.4,0.1,0.7
			c0.1-0.2,0.3-0.4,0.4-0.6c0.1-0.1,0.2-0.3,0.3-0.5c0.2-0.6,0.4-1.1,0.6-1.7c0.2-0.5,0.4-1.1,0.6-1.7c0.6-1.8,1.1-3.8,1.6-6.2
			c0.5-2.4,1-4.9,1.5-7.5c0.1-0.5,0.3-0.8,0.6-1s0.6-0.3,0.9-0.2C140.3,200.3,140.5,200.4,140.7,200.6z M124.3,215.9
			c1-1.5,1.9-3.2,2.6-4.8c0.8-1.7,1.5-3.4,2.1-5.2c-0.5-0.8-0.9-1.2-1.3-1.3c-0.3-0.1-0.8,0.1-1.4,0.5c-0.2,0.2-0.4,0.4-0.7,0.6
			c-0.2,0.3-0.4,0.5-0.5,0.8c-1.1,2.2-1.6,4.6-1.5,7.2C123.6,214.4,123.8,215.1,124.3,215.9z"/>
		<path d="M155.1,195.5c0.4,0,0.7,0.3,0.9,0.7c0.2,0.4,0.4,0.8,0.4,1.2c0,0.1,0,0.8-0.1,2.1c0,1.2-0.2,2.7-0.4,4.4
			c-0.2,1.7-0.6,3.5-1.1,5.3c-0.5,1.8-1.3,3.4-2.2,4.7c-0.9,1.2-1.9,2-2.9,2.4c-1.1,0.4-1.9,0.6-2.6,0.7c-0.1,0-0.1,0-0.2,0.1
			c-0.1,0-0.3,0-0.4,0c0,0,0-0.1-0.1-0.1c0,0,0,0-0.1,0c-0.1,0-0.1,0-0.2,0c0,0,0,0,0,0c0,0,0,0,0,0c-2.1-0.1-3.7-1.5-4.9-4.1
			c-0.6-1.3-1.1-2.6-1.4-4c-0.3-1.3-0.5-2.7-0.6-4.2c0-0.1,0-0.2,0-0.4c0-0.1,0-0.3,0-0.5c0-1.3,0-2.6,0-4c0-1.3,0.2-2.6,0.5-3.9
			c0.2-0.7,0.4-1.5,0.6-2.2c0.2-0.7,0.5-1.4,0.9-2c0.9-1.6,1.9-2.6,3.1-2.9c1.2-0.4,2.5-0.1,3.9,0.9c0.9,0.7,1.5,1.7,2,3
			c0.1,0.5,0.3,0.9,0.4,1.4c0.1,0.5,0.2,1,0.3,1.5c0.1,0.4,0.1,0.9,0.1,1.3c0,0.4-0.1,0.9-0.3,1.2c-0.2,0.6-0.5,0.9-1,0.9
			c-0.4,0-0.8-0.3-1.1-0.8c-0.2-0.3-0.4-0.7-0.5-1.1c-0.1-0.4-0.3-0.8-0.4-1.2c-0.3-0.7-0.7-1.1-1.2-1.1c-0.5-0.1-0.9,0.2-1.2,0.7
			c-0.2,0.4-0.4,1-0.5,1.6c-0.3,2.1-0.5,4.1-0.4,6.2c0.1,2.1,0.4,4.1,0.9,6.2c0.2,0.9,0.5,1.5,1,1.9c0.5,0.4,1,0.6,1.6,0.7
			c1.2,0,2.3-0.7,3.2-1.9c0.9-1.2,1.7-2.6,2.3-4.3c0.3-1.1,0.4-2.1,0.6-3.2c0.1-1.1,0.3-2,0.3-2.9c0.1-1,0.1-2,0.1-2.9
			c0-0.5,0.1-1,0.3-1.3C154.4,195.7,154.7,195.5,155.1,195.5z"/>
		<path d="M175.2,190.4c0.4,0.1,0.7,0.4,0.9,0.9c0.2,0.5,0.3,0.9,0.2,1.4c-0.1,0.5-0.1,1.3-0.2,2.3c-0.1,1.1-0.2,2.2-0.5,3.5
			c-0.2,1.3-0.5,2.7-0.8,4.1c-0.3,1.4-0.7,2.7-1.1,3.9c-0.4,1.2-1,2.2-1.5,3c-0.6,0.8-1.2,1.3-2,1.5c0,0,0,0-0.1,0
			c-0.8,0.2-1.6,0.1-2.3-0.2c-0.7-0.3-1.4-0.7-2-1.3c-0.6-0.5-1.1-1.1-1.6-1.8c-0.5-0.7-0.8-1.3-1.2-1.9c-0.1,0.2-0.1,0.3-0.2,0.4
			c-0.1,0.1-0.1,0.2-0.2,0.3c-0.2,0.4-0.2,0.9-0.1,1.5c0.1,0.6,0.2,1.1,0.2,1.6c0.1,0.5,0.1,1.1,0.2,1.6c0.1,0.5,0.1,0.7,0.2,1.2
			c0,0.9-0.1,1.6-0.5,2.1c-0.4,0.5-0.8,0.7-1.4,0.5c-0.5-0.2-1-0.6-1.4-1.3c-0.2-0.3-0.3-0.6-0.5-0.9c-0.1-0.3-0.3-0.6-0.4-0.9
			c-2-5.4-3.8-10.9-5.2-16.4c-1.4-5.5-2.5-11.3-3.3-17.2c-0.1-0.8-0.2-1.6-0.3-2.5c-0.1-0.9-0.1-1.7-0.1-2.6c0-0.4,0-0.8,0.1-1.2
			c0.1-0.4,0.1-0.8,0.2-1.2c0.2-0.9,0.6-1.5,1.2-1.7c0.6-0.2,1.1,0,1.7,0.6c0.4,0.4,0.8,1,1,1.6c0.5,1.5,1,3,1.3,4.5
			c0.6,2.7,1.1,5.6,1.6,8.4c0.5,2.8,1.1,5.6,1.6,8.4c0.1,0.4,0.1,0.7,0.2,1.1c0.1,0.3,0.1,0.8,0.2,1c0,0.1,0.1,0.1,0.2,0.1
			c0-0.2,0-0.4,0.1-0.7c0-0.2,0.1-0.4,0.1-0.7c0.1-1.1,0.3-2.2,0.5-3.3c0.2-1.1,0.5-2.1,0.8-3.1c0.2-0.7,0.5-1.4,0.8-2
			c0.3-0.6,0.7-1.2,1.1-1.7c0.7-0.8,1.3-1.1,2-0.9c0.7,0.2,1.3,0.8,1.8,2c1,2.2,1.4,4.5,1.2,7c-0.1,1.3-0.3,2.6-0.5,3.8
			c-0.3,1.2-0.6,2.3-1,3.4c-0.1,0.3-0.2,0.6-0.3,0.9c-0.1,0.3-0.2,0.6-0.4,0.9c-0.4,0.9-0.6,1.4-1.1,2.3c0.2,0.3,0.4,0.8,0.7,1.4
			c0.3,0.6,0.7,1.1,1.2,1.6c0.4,0.5,0.9,0.9,1.5,1.2c0.5,0.3,1.1,0.4,1.7,0.3c0,0,0,0,0.1,0c0.3-0.1,0.7-0.4,1.1-1.1
			c0.4-0.6,0.8-1.6,1.2-2.9c0.4-1.3,0.8-2.9,1.1-4.8c0.3-1.9,0.6-4.1,0.8-6.7c0.1-0.5,0.2-0.9,0.5-1.2
			C174.5,190.4,174.8,190.3,175.2,190.4z M164.4,186.6c-0.9,2.1-1.5,4.2-1.8,6.6c-0.3,2.3-0.4,4.7-0.5,7.1c0.1,0,0.2,0,0.3-0.1
			c1.4-2.3,2.3-4.9,2.9-7.8c0.1-0.6,0.2-1.3,0.2-1.9c0-0.6-0.1-1.3-0.2-2c-0.1-0.3-0.1-0.6-0.2-1
			C164.8,187.2,164.6,186.9,164.4,186.6z"/>
		<path d="M181.3,195.4c0.1-0.4,0.2-0.8,0.3-1c0.4-1.8,0.8-3.6,1.3-5.4c0.2-0.8,0.5-1.5,0.8-2.2c0.3-0.7,0.7-1.3,1.1-1.9
			c0.9-1.3,1.9-1.8,3-1.6c1.1,0.2,2.1,1.1,3.1,2.7c0.4,0.7,0.7,1.4,1.1,2c0.1-0.1,0.3-0.1,0.4-0.2c0.1-0.1,0.3-0.1,0.4-0.2
			c0.4-0.3,0.9-0.5,1.3-0.7c0.4-0.2,0.9-0.4,1.3-0.6c0.6-0.2,1.1-0.3,1.6-0.2c0.3,0,0.6,0.2,0.8,0.5c0.2,0.3,0.4,0.7,0.5,1.2
			c0.1,0.9-0.1,1.6-0.6,1.9c-0.2,0.2-0.4,0.4-0.7,0.5c-0.2,0.1-0.5,0.2-0.7,0.3c-0.4,0.3-0.9,0.6-1.3,0.8c-0.4,0.2-0.9,0.4-1.3,0.7
			c0,0.1-0.1,0.2-0.2,0.2c-0.1,0-0.2,0.1-0.2,0.2c-0.1,0.2,0,0.5,0,0.7c0,0.3,0.1,0.5,0.1,0.8c0.2,1.7,0.3,3.5,0.4,5.2
			c0,1.7-0.1,3.4-0.4,5.1c-0.1,0.7-0.3,1.4-0.5,2.1c-0.2,0.7-0.4,1.4-0.6,2c-0.3,1.1-0.9,1.9-1.6,2.4c-0.8,0.6-1.7,0.7-2.7,0.2
			c-0.9-0.5-1.7-1.4-2.3-2.8c-0.3-0.7-0.6-1.5-0.8-2.2c-0.2-0.8-0.3-1.6-0.4-2.4c-0.2-1.8-0.1-3.6,0.1-5.2c0.2-1.6,0.7-3.1,1.4-4.4
			c0.4-0.7,0.7-1.3,1.1-2c0.4-0.6,0.8-1.3,1.2-2c0-0.1,0-0.1,0-0.2c-0.4-0.8-0.7-1.3-0.9-1.3c-0.2-0.1-0.6,0.2-0.9,0.8
			c-0.4,0.7-0.7,1.4-1,2.2c-0.7,2.5-1.3,5.1-1.7,7.7c-0.4,2.6-0.7,5.3-0.9,8.1c0,1.1,0,2.2,0.2,3.3c0.2,1.1,0.3,2.2,0.5,3.3
			c0.2,1.5,0.5,2.9,0.8,4.4c0.3,1.4,0.6,2.9,0.9,4.3c0,0.3,0.1,0.4,0.1,0.7c0.1,0.7,0.1,1.3,0,1.9c-0.1,0.5-0.4,1-0.8,1.2
			c-0.4,0.3-0.8,0.3-1.2,0.2c-0.4-0.2-0.8-0.6-1.2-1.2c-0.4-0.7-0.7-1.5-1-2.5c-0.4-1.5-0.9-2.9-1.4-4.4c-0.4-1.4-0.9-2.9-1.2-4.4
			c-1-3.6-1.9-7.1-2.7-10.7c-0.8-3.6-1.4-7.2-1.9-10.8c-0.2-1.5-0.4-3-0.6-4.6c-0.2-1.5-0.2-3.1-0.2-4.6c0-0.6,0-1.1,0.1-1.6
			c0-0.5,0.1-1,0.2-1.6c0.2-0.7,0.4-1.3,0.7-1.7c0.3-0.4,0.7-0.6,1.1-0.7c0.4-0.1,0.8,0.1,1.2,0.4c0.4,0.3,0.8,0.8,1.1,1.5
			c0.2,0.5,0.4,1.1,0.7,1.7c0.2,0.6,0.4,1.2,0.5,1.7c0.3,1.5,0.6,3,0.9,4.6c0.3,1.6,0.5,3.1,0.8,4.7c0.2,1.1,0.3,1.7,0.5,2.8
			c0,0,0,0,0,0C181.2,195.3,181.2,195.3,181.3,195.4z M189.2,194.4c-0.8,1.3-1.3,2.8-1.6,4.3c-0.3,1.5-0.1,3.4,0,5.1
			c0,0.4,0.1,0.8,0.2,1.2c0.1,0.4,0.3,0.7,0.6,1c0.3-0.2,0.5-0.5,0.7-0.9c0.1-0.4,0.2-0.8,0.3-1.3c0.2-1.4,0.3-2.9,0.3-4.3
			s-0.1-2.9-0.2-4.5c0,0,0-0.1,0-0.2C189.4,194.7,189.3,194.6,189.2,194.4z"/>
		<path d="M219.1,183.6c0.3,0.3,0.4,0.6,0.4,1c0.1,0.3,0.1,0.7,0,1.1c0,0,0,0.4-0.2,0.9c-0.1,0.6-0.3,1.3-0.4,2.3
			c-0.2,0.9-0.4,2-0.7,3.2c-0.3,1.2-0.5,2.4-0.8,3.7c-0.2,0.8-0.4,1.5-0.6,2.2c-0.2,0.7-0.4,1.3-0.5,1.9c-0.2,0.7-0.4,1.5-0.6,2.3
			c-0.2,0.8-0.4,1.5-0.7,2.3c-0.2,0.9-0.5,1.8-0.9,2.7c-0.3,0.7-0.8,1.2-1.2,1.5c-0.5,0.3-0.9,0.4-1.4,0.2c-0.5-0.1-1-0.4-1.4-1
			c-0.5-0.5-0.8-1.2-1.2-2.1c-0.4-0.9-0.7-1.9-0.8-3c-0.1-0.8-0.2-1.6-0.3-2.5c-0.1-0.8-0.2-1.7-0.3-2.6c0-0.2,0-0.4,0-0.7
			c0-0.2,0-0.6-0.1-0.9c-0.1,0.2-0.2,0.4-0.3,0.6c-0.1,0.1-0.1,0.3-0.2,0.5c-0.2,0.6-0.5,1.3-0.7,2c-0.2,0.7-0.5,1.3-0.8,2
			c-0.2,0.4-0.4,0.8-0.7,1.3c-0.2,0.4-0.5,0.8-0.8,1.1c-0.8,1.1-1.8,1.5-2.8,1.2c-1-0.2-2-1.1-2.8-2.5c-0.6-1-1.1-2-1.4-3.1
			c-0.4-1.1-0.6-2.2-0.7-3.4c-0.3-2.8-0.3-5.5,0-8c0.3-2.5,1.1-4.8,2.2-7c0.9-1.7,1.9-2.8,3.2-3.2c1.2-0.4,2.6-0.2,4.1,0.6
			c0.4,0.2,0.9,0.6,1.3,1c0.4,0.4,0.9,0.8,1.3,1.2c0-0.1,0.1-0.2,0.1-0.3c0-0.1,0.1-0.3,0.1-0.5c0.1-0.5,0.3-0.8,0.5-1
			c0.2-0.2,0.5-0.4,0.9-0.3c0.7,0.1,1.3,0.7,1.6,1.7c0.2,0.7,0.3,1.4,0.4,2.1c0,0.8,0.1,1.6,0.1,2.3c0,0.8,0,1.6,0,2.4
			c-0.1,1.9-0.2,3.8-0.3,5.6c-0.1,1.9-0.1,3.7-0.2,5.6c0,0.7,0,1.4,0,2.1c0,0.7,0.1,1.5,0.1,2.2c0,0.2,0,0.4,0,0.6s0.1,0.5,0.1,0.8
			c0.2-0.2,0.3-0.4,0.4-0.6c0.1-0.1,0.2-0.3,0.3-0.6c0.2-0.6,0.4-1.2,0.6-1.8c0.2-0.6,0.4-1.2,0.6-1.8c0.6-1.9,1.2-4.1,1.7-6.7
			c0.6-2.6,1.1-5.2,1.6-8c0.1-0.5,0.3-0.8,0.6-1c0.3-0.2,0.6-0.2,1,0C218.8,183.2,218.9,183.4,219.1,183.6z M201.8,197.4
			c1-1.7,1.9-3.4,2.7-5.2c0.8-1.8,1.5-3.7,2.2-5.6c-0.5-1-1-1.6-1.4-1.8c-0.4-0.2-0.9-0.2-1.5,0.2c-0.2,0.1-0.5,0.3-0.7,0.5
			c-0.2,0.2-0.4,0.5-0.6,0.8c-1.1,2.3-1.6,5-1.5,8.3C201.1,195.4,201.4,196.3,201.8,197.4z"/>
		<path d="M234.1,181.7c0.4,0.1,0.7,0.4,0.9,0.8c0.2,0.4,0.3,0.9,0.4,1.3c0,0.1-0.1,0.8-0.1,2.1c-0.1,1.2-0.3,2.7-0.6,4.4
			c-0.3,1.7-0.7,3.4-1.3,5.2c-0.6,1.8-1.4,3.3-2.4,4.5c-0.9,1.2-2,1.9-3,2.2c-1.1,0.3-2,0.4-2.7,0.4c-0.1,0-0.1,0-0.2,0
			c-0.1,0-0.3,0-0.4,0c0,0,0-0.1-0.1-0.1c0,0,0,0-0.1,0c-0.1,0-0.1,0-0.2,0c0,0,0,0,0-0.1c0,0,0,0,0,0c-2.1-0.4-3.7-2.2-4.9-5.2
			c-0.6-1.6-1.1-3.1-1.4-4.7c-0.3-1.5-0.5-3.1-0.6-4.8c0-0.1,0-0.3,0-0.4c0-0.2,0-0.3,0-0.5c0-1.5,0-2.9,0-4.4
			c0.1-1.4,0.3-2.8,0.6-4.1c0.2-0.8,0.4-1.5,0.7-2.2c0.3-0.7,0.6-1.3,1-1.9c1-1.4,2.1-2.2,3.4-2.2c1.3,0,2.6,0.6,4,2
			c0.9,0.9,1.5,2.1,2,3.6c0.1,0.5,0.2,1,0.3,1.6c0.1,0.5,0.2,1.1,0.3,1.6c0.1,0.5,0.1,0.9,0,1.4c0,0.4-0.2,0.9-0.4,1.2
			c-0.2,0.6-0.6,0.8-1,0.7c-0.4-0.1-0.8-0.5-1.1-1.1c-0.2-0.4-0.4-0.8-0.5-1.3c-0.1-0.4-0.3-0.9-0.4-1.3c-0.3-0.8-0.7-1.3-1.2-1.5
			c-0.5-0.2-1,0-1.3,0.5c-0.3,0.4-0.4,0.9-0.6,1.6c-0.4,2.1-0.6,4.3-0.5,6.5c0,2.3,0.3,4.5,0.8,6.9c0.2,1,0.5,1.7,1,2.2
			c0.5,0.5,1,0.9,1.7,1c1.2,0.2,2.4-0.4,3.3-1.5c0.9-1.1,1.8-2.5,2.5-4.1c0.3-1,0.5-2.1,0.7-3.1c0.2-1.1,0.3-2,0.4-2.9
			c0.1-1,0.2-2,0.2-2.9c0-0.5,0.1-1,0.4-1.3C233.5,181.7,233.8,181.5,234.1,181.7z"/>
		<path d="M254.9,180.9c0.4,0.2,0.7,0.5,0.9,1c0.2,0.4,0.3,0.9,0.2,1.3c-0.1,0.4-0.2,1.1-0.3,2.1s-0.3,2-0.6,3.2
			c-0.3,1.2-0.6,2.4-0.9,3.6c-0.4,1.3-0.8,2.4-1.3,3.4c-0.5,1-1.1,1.9-1.7,2.6c-0.6,0.7-1.3,1.1-2.1,1.2c0,0,0,0-0.1,0
			c-0.9,0.1-1.6-0.1-2.4-0.5c-0.7-0.4-1.4-0.9-2-1.5c-0.6-0.6-1.1-1.2-1.5-2c-0.4-0.7-0.8-1.4-1.1-2c-0.1,0.2-0.1,0.2-0.2,0.4
			c-0.1,0.1-0.1,0.2-0.2,0.3c-0.2,0.4-0.2,0.9-0.2,1.5c0.1,0.6,0.1,1.1,0.2,1.6c0,0.5,0.1,1.1,0.2,1.6c0.1,0.5,0.1,0.7,0.2,1.2
			c0,0.9-0.2,1.6-0.6,2.1c-0.4,0.5-0.9,0.6-1.4,0.3c-0.5-0.2-1-0.7-1.4-1.5c-0.2-0.3-0.3-0.6-0.5-0.9c-0.1-0.3-0.2-0.6-0.3-0.9
			c-1.9-5.8-3.5-11.6-4.8-17.5c-1.3-5.9-2.3-12-2.8-18.1c-0.1-0.8-0.2-1.7-0.2-2.6c0-0.9-0.1-1.8-0.1-2.6c0-0.4,0-0.8,0.1-1.1
			c0.1-0.4,0.1-0.8,0.2-1.1c0.3-0.8,0.7-1.3,1.3-1.3c0.6,0,1.2,0.4,1.8,1.2c0.4,0.6,0.8,1.2,1,1.9c0.5,1.6,0.9,3.3,1.2,4.7
			c0.5,2.8,0.9,5.7,1.3,8.6c0.4,2.9,0.9,5.7,1.3,8.6c0.1,0.4,0.1,0.7,0.2,1.1c0.1,0.3,0.1,0.8,0.2,1c0,0.1,0.1,0.1,0.2,0.1
			c0-0.2,0.1-0.4,0.1-0.6c0-0.2,0.1-0.4,0.1-0.6c0.1-1.1,0.3-2.1,0.6-3.1c0.2-1,0.6-1.9,0.9-2.8c0.2-0.6,0.5-1.2,0.9-1.7
			c0.3-0.5,0.7-1,1.2-1.4c0.7-0.6,1.4-0.7,2.1-0.4c0.7,0.3,1.3,1.1,1.7,2.3c0.9,2.2,1.2,4.5,1,6.8c-0.1,1.2-0.4,2.4-0.7,3.5
			c-0.3,1.1-0.7,2.1-1.1,3.1c-0.1,0.3-0.2,0.6-0.4,0.8c-0.1,0.3-0.3,0.6-0.4,0.9c-0.5,0.8-0.7,1.2-1.2,2.1c0.2,0.4,0.4,0.8,0.7,1.4
			c0.3,0.6,0.7,1.2,1.1,1.7c0.4,0.5,0.9,1,1.4,1.4c0.5,0.4,1.1,0.6,1.7,0.5c0,0,0,0,0.1,0c0.3,0,0.7-0.3,1.1-0.9
			c0.4-0.6,0.9-1.4,1.3-2.6c0.5-1.2,0.9-2.6,1.3-4.3c0.4-1.7,0.8-3.7,1.1-6.1c0.1-0.4,0.3-0.8,0.5-1
			C254.2,180.7,254.6,180.7,254.9,180.9z M244,175c-1,1.7-1.7,3.7-2.1,5.9c-0.3,2.2-0.6,4.5-0.8,6.8c0.1,0,0.2,0,0.3,0
			c1.5-2,2.5-4.3,3.2-7c0.1-0.6,0.2-1.2,0.2-1.7c0-0.6,0-1.2-0.1-1.9c-0.1-0.3-0.1-0.6-0.2-1C244.4,175.7,244.3,175.4,244,175z"/>
		<path d="M267.2,181c0.3,0.2,0.6,0.5,0.8,1c0.2,0.5,0.2,0.9,0.2,1.3c0,0-0.1,0.3-0.2,0.8c-0.1,0.5-0.3,1.2-0.5,2
			c-0.2,0.8-0.4,1.7-0.7,2.7c-0.3,1-0.6,2.1-0.9,3.1c-0.1,0.6-0.3,1.1-0.5,1.4c-0.4,1.4-0.9,2.9-1.5,4.3c-0.2,0.6-0.5,1.1-0.8,1.6
			c-0.3,0.5-0.6,1-1,1.3c-1.4,1.4-2.8,1.2-4.2-0.7c-0.5-0.6-0.9-1.3-1.3-2c-0.3-0.7-0.6-1.5-0.9-2.3c-0.7-2.2-1.2-4.5-1.6-6.8
			c-0.4-2.3-0.6-4.6-0.6-6.9c0-0.4,0-0.7,0-1.1c0-0.4,0.1-0.8,0.2-1.1c0.3-1.6,1-2.3,2-2.2c0.5,0.1,0.9,0.4,1.3,0.8
			c0.4,0.5,0.7,1.1,1,2c0.3,0.9,0.5,1.8,0.6,2.6c0.1,1.2,0.2,2.5,0.3,3.7c0.1,1.2,0.2,2.4,0.3,3.7c0.1,0.7,0.1,1.4,0.2,2.1
			c0.1,0.7,0.1,1.4,0.1,2c0,0.2,0.1,0.4,0.1,0.6c0,0.2,0.1,0.4,0.2,0.6c0.1,0.2,0.2,0.5,0.4,0.8c0.2,0.3,0.5,0.2,0.8-0.1
			c0,0,0,0,0,0c0,0,0,0,0-0.1c0,0,0-0.1,0.1-0.1c0.1,0,0.1,0,0.1,0c0,0,0,0,0,0c0.1-0.1,0.1-0.2,0.2-0.3c0.1-0.2,0.1-0.3,0.2-0.4
			c0.3-0.5,0.6-1.2,0.9-2c0.3-0.8,0.7-1.8,1-3.1c0.3-1,0.6-2.1,0.8-3.1c0.2-1,0.5-1.9,0.7-2.7c0.2-0.9,0.4-1.8,0.6-2.7
			c0.1-0.4,0.3-0.7,0.6-0.9C266.6,180.7,266.9,180.8,267.2,181z M256.4,173.2c-0.7-0.1-1.5-0.3-2.1-0.9c-0.6-0.6-1-1.4-1.2-2.5
			c-0.1-0.8-0.1-1.6,0.2-2.2c0.3-0.7,0.7-1,1.2-1.1c0.5-0.1,1.1,0,1.6,0.5c0.5,0.5,0.9,1.1,1.1,1.9c0.1,0.2,0.2,0.4,0.2,0.6
			c0.1,0.2,0.1,0.4,0.2,0.6c0.3,0.9,0.4,1.7,0.2,2.3C257.6,173,257.1,173.3,256.4,173.2z"/>
		<path d="M289.9,182.1c0.3,0.2,0.6,0.5,0.7,0.9c0.2,0.4,0.2,0.8,0.1,1.2c0,0-0.1,0.3-0.2,0.7c-0.1,0.4-0.3,1-0.4,1.8
			c-0.2,0.7-0.4,1.6-0.7,2.5c-0.3,0.9-0.5,1.9-0.9,3c-0.8,2.6-1.5,4.6-2,5.9c-0.6,1.3-1.2,2.3-1.6,2.8c-0.4,0.5-0.8,1-1.3,1.2
			c-0.5,0.2-1,0.3-1.5,0.1c-0.5-0.1-1-0.4-1.5-0.9c-0.5-0.5-0.8-1.1-1.1-1.8c-0.2-0.5-0.4-1-0.6-1.6c-0.2-0.6-0.3-1.2-0.4-1.7
			c-0.4-2.3-0.7-4.7-0.8-7c-0.1-2.3-0.1-4.6,0.2-6.9c0-0.1,0-0.2,0-0.4c0-0.2,0-0.4,0-0.7c-0.2,0.2-0.3,0.4-0.3,0.6
			c-0.1,0.1-0.2,0.3-0.3,0.4c-0.6,1.1-1.1,2.3-1.6,3.5c-0.5,1.2-0.9,2.5-1.3,3.9c-0.2,0.7-0.4,1.5-0.6,2.3c-0.2,0.8-0.5,1.6-0.7,2.3
			c-0.2,0.7-0.5,1.4-0.9,2c-0.4,0.7-1,1.1-1.6,1c-0.6-0.1-1.2-0.5-1.8-1.3c-0.2-0.3-0.4-0.7-0.6-1.1c-0.2-0.4-0.3-0.8-0.5-1.2
			c-0.8-2.3-1.3-4.6-1.7-6.9c-0.3-2.3-0.5-4.6-0.5-7c0-0.5,0.1-1,0.2-1.5c0.1-0.5,0.3-0.9,0.6-1.2c0.3-0.3,0.6-0.4,1-0.3
			c0.4,0.1,0.7,0.3,1,0.7c0.3,0.4,0.5,0.8,0.7,1.4c0.2,0.7,0.3,1.3,0.4,2c0.4,2.8,0.6,4.3,1,7.1c0.1,0.5,0.1,0.8,0.2,1.3
			c0,0.1,0,0.2,0,0.3c0,0.2,0,0.2,0.1,0.4c0,0,0.1,0,0.1-0.1c0-0.1,0.1-0.3,0.2-0.5c0.1-0.2,0.1-0.5,0.2-0.7
			c0.1-0.3,0.2-0.5,0.3-0.8c0-0.1,0.1-0.3,0.1-0.4c0.1-0.1,0.1-0.2,0.1-0.4c0,0,0,0,0,0c0.4-1,0.8-2,1.2-3c0.4-1,0.8-1.9,1.2-2.9
			c0.3-0.7,0.7-1.4,1.1-2c0.4-0.6,0.9-1.1,1.4-1.6c0.5-0.5,1-0.9,1.5-1.1c0.7-0.3,1.3-0.3,1.9,0c0.6,0.3,1.2,0.9,1.6,1.8
			c0.5,0.9,0.8,1.9,1.1,3c0.3,1,0.4,2,0.5,2.9c0,0.9,0.1,1.8,0.1,2.8c0,1.6,0,3.2,0,4.7c0,1.6,0,3.2,0,4.8c0,0.3,0,0.5,0,0.8
			c0,0.2,0.1,0.5,0.1,0.8c0,0,0,0,0,0c0.3-0.5,0.7-1.3,1.1-2.3c0.4-1,0.8-2.2,1.2-3.6c0.4-1.4,0.8-2.8,1.3-4.4
			c0.4-1.6,0.8-3.2,1.2-4.9c0.1-0.4,0.3-0.6,0.6-0.7C289.2,181.8,289.5,181.9,289.9,182.1z"/>
		<path d="M313.7,185.1c0.3,0.3,0.5,0.5,0.5,0.9c0.1,0.3,0,0.6-0.2,0.8c0,0-0.2,0.2-0.5,0.5c-0.3,0.3-0.6,0.7-1,1.1
			c-0.4,0.5-0.9,1-1.4,1.6c-0.5,0.6-1.1,1.3-1.7,2c-0.6,0.7-1.2,1.4-1.8,2c-0.6,0.7-1.1,1.3-1.6,1.9c0,0.1,0,0.2,0,0.3
			c0.2,1.8,0.3,3.6,0.4,5.4c0.1,1.8,0,3.6-0.2,5.4c-0.1,1.2-0.3,2.3-0.6,3.5c-0.2,0.7-0.5,1.3-0.9,1.8c-0.4,0.5-0.9,0.9-1.6,1.2
			c-0.9,0.4-1.7,0.5-2.6,0.1c-0.9-0.3-1.6-1-2.2-2c-1.5-2.6-2-5.5-1.5-8.6c0.2-1.1,0.6-2.2,1-3.1c0.5-0.9,1-1.8,1.6-2.6
			c0.3-0.4,0.6-0.8,0.9-1.1c0.3-0.4,0.6-0.7,0.9-1.1c0.2-0.3,0.4-0.5,0.3-0.8c-0.2-1.4-0.4-2.8-0.6-4.2c-0.2-1.4-0.4-2.7-0.5-4.1
			c0,0,0-0.1-0.1-0.1c0,0-0.1-0.1-0.1-0.2c-0.1,0-0.3-0.1-0.4-0.2c-0.1-0.1-0.3-0.1-0.4-0.2c-0.1,0.1-0.2,0.3-0.2,0.3
			s-0.1,0.2-0.2,0.3c-0.6,0.9-1.2,1.8-1.7,2.7c-0.6,0.9-1.1,1.9-1.7,2.8c-0.2,0.3-0.5,0.7-0.8,1c-0.3,0.3-0.6,0.6-0.9,0.9
			c-0.2,0.2-0.4,0.4-0.6,0.6c-0.2,0.1-0.5,0.3-0.7,0.5c-0.8,0.4-1.5,0.4-2.2,0.1c-0.7-0.3-1.4-1-1.9-1.9c-0.4-0.7-0.6-1.4-0.8-2.2
			c-0.2-0.7-0.3-1.5-0.3-2.3c-0.1-3.9,0.8-7.2,2.8-9.5c1.5-1.8,3.5-2,5.9-0.8c0.5,0.2,1,0.5,1.4,0.8c0.5,0.3,1,0.6,1.6,0.9
			c0-0.2,0.1-0.4,0.1-0.5c0.1-0.2,0.1-0.3,0.1-0.5c0.2-1,0.7-1.5,1.5-1.4c0.9,0.1,1.6,0.7,2.1,1.8c0.1,0.4,0.3,0.7,0.4,1.1
			s0.2,0.8,0.3,1.2c0.3,1.5,0.5,3.1,0.8,4.6c0.3,1.5,0.5,3.1,0.8,4.7c0.1,0.4,0.1,0.7,0.2,1.1c0.1-0.1,0.2-0.2,0.3-0.2
			c0.1-0.1,0.2-0.1,0.3-0.2c1-1,1.9-1.9,2.8-3c0.9-1,1.7-2,2.5-3c0.2-0.3,0.5-0.5,0.7-0.6c0.2-0.1,0.3-0.2,0.5-0.1
			C312.9,184.5,313.3,184.7,313.7,185.1z M291.5,189.9c0.3-0.1,0.7-0.5,1.3-1.1c0.6-0.6,1.1-1.2,1.7-2c0.6-0.7,1.1-1.4,1.5-2.1
			c0.5-0.7,0.8-1.2,0.9-1.7c-0.5-0.3-1.1-0.6-1.5-0.8c-0.5-0.3-1-0.4-1.4-0.3c-0.4,0.1-0.8,0.3-1.1,0.7c-0.7,0.9-1.1,1.9-1.3,3
			c-0.2,1.1-0.3,2.4-0.2,3.7C291.4,189.5,291.4,189.7,291.5,189.9z M302,208.4c0.2-1.4,0.3-2.9,0.3-4.3c0-1.5-0.1-2.9-0.3-4.4
			c-0.4,0.5-0.7,1.1-1.1,1.7c-0.3,0.6-0.6,1.3-0.8,2c-0.5,1.7-0.3,3.4,0.5,5.2c0.1,0.2,0.2,0.4,0.3,0.6c0.1,0.2,0.3,0.3,0.5,0.2
			c0.2,0,0.3-0.1,0.4-0.4C301.9,208.8,301.9,208.6,302,208.4z"/>
	</g>
</g>
<path d="M200.1,212.9c0,0,2,6.1,5.4,10.2s3.4,4.1,3.4,4.1h-4.4c0,0,5.1,10.9,7.8,10.9h-4.6c0,0,2.5,6.1,5.6,7.6h-22.6
	c0,0,3.7-5.4,3.9-7c0.2-1.5-3.9-0.8-3.9-0.8s5.3-7.8,5.6-10c0.3-2.2-2.4-1.7-2.4-1.7S200.6,218.2,200.1,212.9z"/>
<path d="M175.8,220.8c0,0,1.5,4.6,4.1,7.6c2.5,3,2.5,3,2.5,3h-3.3c0,0,3.8,8.1,5.8,8.1h-3.4c0,0,1.9,4.6,4.2,5.7h-16.9
	c0,0,2.8-4.1,2.9-5.2c0.1-1.1-2.9-0.6-2.9-0.6s3.9-5.8,4.2-7.5c0.3-1.7-1.8-1.3-1.8-1.3S176.1,224.7,175.8,220.8z"/>
<path d="M152.2,217.4c0,0,1.7,5.2,4.6,8.7c2.9,3.5,2.9,3.5,2.9,3.5h-3.8c0,0,4.3,9.3,6.7,9.3h-3.9c0,0,2.2,5.2,4.8,6.5h-19.2
	c0,0,3.2-4.6,3.3-5.9c0.1-1.3-3.3-0.7-3.3-0.7s4.5-6.7,4.8-8.5c0.3-1.9-2-1.4-2-1.4S152.6,221.9,152.2,217.4z"/>
<path d="M133.4,229.3c0,0,1,3,2.7,5.1c1.7,2,1.7,2,1.7,2h-2.2c0,0,2.5,5.4,3.9,5.4h-2.3c0,0,1.3,3,2.8,3.8h-11.2
	c0,0,1.9-2.7,1.9-3.5s-1.9-0.4-1.9-0.4s2.6-3.9,2.8-5c0.2-1.1-1.2-0.8-1.2-0.8S133.7,231.9,133.4,229.3z"/>
<path d="M118.2,226.6c0,0,1.2,3.5,3.1,5.8c1.9,2.3,1.9,2.3,1.9,2.3h-2.5c0,0,2.9,6.2,4.5,6.2h-2.6c0,0,1.5,3.5,3.2,4.4h-12.9
	c0,0,2.1-3.1,2.2-4c0.1-0.9-2.2-0.5-2.2-0.5s3-4.5,3.2-5.7s-1.4-1-1.4-1S118.5,229.6,118.2,226.6z"/>
</svg>
